<svg width="445" height="500" viewBox="0 0 445 500" fill="none" xmlns="http://www.w3.org/2000/svg">
<path d="M4.28882 417.69C12.3762 425.29 23.4045 429.213 33.82 429.213C52.9357 429.213 63.964 417.69 63.964 404.452C63.964 393.174 57.8371 386.677 48.1568 382.755L37.8637 378.587C31.0017 375.768 25.7327 374.052 25.7327 369.148C25.7327 364.613 29.6538 361.916 35.9032 361.916C42.275 361.916 47.1765 364.245 52.4456 368.29L61.6358 356.89C54.7737 350.026 45.0934 346.348 35.9032 346.348C19.2382 346.348 7.47476 356.89 7.47476 370.129C7.47476 381.774 15.3171 388.639 23.527 391.948L33.9426 396.361C40.9271 399.303 45.461 400.897 45.461 405.923C45.461 410.703 41.7849 413.645 34.3102 413.645C27.6932 413.645 20.3411 410.213 14.5819 405.31L4.28882 417.69ZM77.5242 427.742H95.537V394.4H123.108V427.742H141.243V347.819H123.108V378.587H95.537V347.819H77.5242V427.742ZM160.093 427.742H178.105V347.819H160.093V427.742ZM196.949 427.742H214.962V400.652H226.113C243.023 400.652 257.36 392.316 257.36 373.561C257.36 354.194 243.391 347.819 226.113 347.819H196.949V427.742ZM214.962 386.31V362.161H225.01C234.568 362.161 239.714 365.226 239.714 373.561C239.714 381.897 234.936 386.31 225.01 386.31H214.962ZM271.261 427.742H289.274V406.29L298.586 394.032L318.07 427.742H337.797L309.247 379.69L333.386 347.819H313.536L289.764 380.548H289.274V347.819H271.261V427.742ZM346.529 427.742H364.542V347.819H346.529V427.742ZM398.949 427.742H417.084V363.019H439.018V347.819H377.015V363.019H398.949V427.742Z" fill="#00589A"/>
<path d="M335.362 122.581H109.638V290.323H335.362V122.581Z" fill="#00589A"/>
<path d="M293.442 45.1613H151.558V122.581H293.442V45.1613Z" fill="#E7D32A"/>
<path d="M293.442 45.1613L335.362 122.581H293.442V45.1613Z" fill="#6C6D2A"/>
<path d="M151.558 45.1613L109.638 122.581H151.558V45.1613Z" fill="#6C6D2A"/>
<path d="M353.098 0L293.442 45.1613L335.362 122.581L409.529 69.3548L353.098 0Z" fill="#01B3E0"/>
<path d="M91.9022 0L151.558 45.1613L109.638 122.581L35.471 69.3548L91.9022 0Z" fill="#01B3E0"/>
</svg>
